<svg id="flourish_logo" viewBox="0 0 950 394.236" width="100%" height="100%">
        <title>flourish_logo</title> <g id="digital"> <path class="cls-1" d="M696.7,323.527a24.1,24.1,0,0,0-9.078-7.563,27.255,27.255,0,0,0-11.821-2.522H658.652v79.338h17.033a27.283,27.283,0,0,0,11.823-2.521,24.757,24.757,0,0,0,9.133-7.508,35.6,35.6,0,0,0,5.825-12.383,74.093,74.093,0,0,0,0-34.346A36.786,36.786,0,0,0,696.7,323.527Zm-1.569,44.2a31.54,31.54,0,0,1-4.482,10.232,19.075,19.075,0,0,1-6.726,6.072,17.722,17.722,0,0,1-8.347,2.024h-9.19V320.165h9.19a17.735,17.735,0,0,1,8.347,2.025,19.1,19.1,0,0,1,6.726,6.071,31.54,31.54,0,0,1,4.482,10.289,58.793,58.793,0,0,1,1.623,14.673A57.583,57.583,0,0,1,695.127,367.727Z"></path> <rect class="cls-1" x="719.275" y="313.442" width="7.843" height="79.338"></rect> <path class="cls-1" d="M769.81,356.808h11.32V383.7a12.917,12.917,0,0,1-4.763,2.577,21.437,21.437,0,0,1-6.443.9,14.969,14.969,0,0,1-8.686-2.577,20.5,20.5,0,0,1-6.274-7.115,36.707,36.707,0,0,1-3.753-10.814,75.822,75.822,0,0,1-.057-26.95,40.249,40.249,0,0,1,3.586-10.926,21.515,21.515,0,0,1,6-7.452,13.6,13.6,0,0,1,8.515-2.745,14.515,14.515,0,0,1,7.339,1.961,17.96,17.96,0,0,1,6,5.883l5.043-5.155a20.057,20.057,0,0,0-8.068-7.4,23.936,23.936,0,0,0-10.645-2.353,21.2,21.2,0,0,0-11.431,3.137,26.723,26.723,0,0,0-8.518,8.685,44.313,44.313,0,0,0-5.321,13.166,75.634,75.634,0,0,0,.055,33.506,41.346,41.346,0,0,0,5.49,13,25.3,25.3,0,0,0,8.855,8.292,24.129,24.129,0,0,0,11.878,2.914,31.3,31.3,0,0,0,10.925-1.732,24.607,24.607,0,0,0,7.9-4.641V350.085H769.81Z"></path> <rect class="cls-1" x="805.221" y="313.442" width="7.843" height="79.338"></rect> <polygon class="cls-1" points="860.466 313.442 822.142 313.442 822.142 320.165 837.38 320.165 837.38 392.779 845.114 392.779 845.114 320.165 860.466 320.165 860.466 313.442"></polygon> <path class="cls-1" d="M879.4,313.442l-20.17,79.338h7.957l5.041-19.835h24.428l4.82,19.835h8.18l-19.611-79.338Zm-6.053,53.228L884.336,320.5h.447l10.759,46.168Z"></path> <polygon class="cls-1" points="927.366 385.495 927.366 313.442 919.521 313.442 919.521 392.779 950 392.779 950 385.495 927.366 385.495"></polygon> </g> <g id="flourish"> <path class="cls-1" d="M45.685,46.182q0-17.555,3.409-24.206t14.66-6.648q3.747,0,14.831,2.046V3.224A69.945,69.945,0,0,0,60,.838,40.964,40.964,0,0,0,44.918,3.31a26.05,26.05,0,0,0-9.631,6.137A24.757,24.757,0,0,0,30,19.589a59.793,59.793,0,0,0-2.3,12.188q-.426,5.714-.426,14.745V73.8H0V86.923H27.274l-.04,199.712H45.328l.357-199.712H79.437V73.8H45.685Z"></path> <rect class="cls-1" x="124.337" width="18.581" height="286.635"></rect> <path class="cls-1" d="M290.526,97.251a35.174,35.174,0,0,0-15.683-14.916q-9.972-4.77-24.8-4.773-28.809,0-39.8,18.5t-11,58.385v54.549q0,40.059,10.91,58.47t39.889,18.41q28.979,0,39.889-18.41t10.91-58.47V154.442a205.1,205.1,0,0,0-2.3-33.411A72.834,72.834,0,0,0,290.526,97.251Zm-8.268,112.422q0,10.91-.341,18.24T280.468,243a45.66,45.66,0,0,1-3.324,12.529,37.025,37.025,0,0,1-5.71,8.779,19.824,19.824,0,0,1-8.864,5.8,44.747,44.747,0,0,1-25.059,0,19.811,19.811,0,0,1-8.864-5.8,36.874,36.874,0,0,1-5.71-8.779A45.486,45.486,0,0,1,219.612,243q-1.111-7.756-1.449-15.086t-.341-18.24V153.76q0-13.126.511-21.564a107.443,107.443,0,0,1,2.386-16.876q1.875-8.438,5.284-13.211a24.28,24.28,0,0,1,9.375-7.671,38.53,38.53,0,0,1,29.32,0,24.314,24.314,0,0,1,9.375,7.671q3.409,4.773,5.284,13.211a107.7,107.7,0,0,1,2.386,16.876q.512,8.438.511,21.564Z"></path> <path class="cls-1" d="M433.7,247.175a85.8,85.8,0,0,1-20.371,17.643q-10.832,6.563-21.223,6.563t-15.768-7.074q-5.37-7.071-5.37-24.632V80.8H352.388V241.72q0,22.846,8.608,33.5t23.1,10.654a54.028,54.028,0,0,0,26.763-7.159A77.951,77.951,0,0,0,433.7,258.937v27.695h18.41V80.8H433.7Z"></path> <path class="cls-1" d="M578.151,78.755q-12.614,0-25.911,7.586c-8.864,5.057-16.137,11.3-21.82,20.734V80.8H512.01V286.635h18.517l-.106-161.388c10.228-17.387,24.774-28.081,43.639-28.081a23.92,23.92,0,0,1,7.5,1.023V78.926c-.227,0-.824-.026-1.79-.085S578.265,78.755,578.151,78.755Z"></path> <rect class="cls-1" x="628.679" y="80.801" width="18.581" height="205.834"></rect> <path class="cls-1" d="M792.308,203.536a127,127,0,0,0-11.08-12.785q-5.029-4.943-13.722-12.444L743.47,157Q731.2,146.6,727.02,138.418T722.843,118.3q0-12.785,8.1-19.774T752.5,91.54q29.661,0,31.025,43.128l13.808-4.091q-.853-25.059-12.359-39.037T751.652,77.562q-21.138,0-33.5,11.506T705.8,121.2a50.792,50.792,0,0,0,6.819,26.252q6.819,11.6,22.331,24.547L758.3,191.774q29.491,24.892,29.491,47.9,0,15.342-8.523,23.78t-23.524,8.438q-35.287,0-38.866-48.242l-15.683,4.6q2.216,26.937,16.194,42.276t37.5,15.342q22.842,0,36.139-12.273t13.3-34.093a65.155,65.155,0,0,0-3.068-19.263A55.466,55.466,0,0,0,792.308,203.536Z"></path> <path class="cls-1" d="M940.94,88.216q-8.694-10.651-23.183-10.654-26.593,0-47.9,24.718V0H851.275V286.635h19.111l-.53-172.423q20.456-22.157,39.889-22.161,10.392,0,15.768,7.074t5.37,24.632V286.635h18.751V121.713Q949.634,98.87,940.94,88.216Z"></path> </g> <g id="leaves"> <path class="cls-2" d="M641.63,45.3A56.751,56.751,0,0,0,598.886,1.926a56.725,56.725,0,0,0,39.047,67.062A30.1,30.1,0,0,1,641.63,45.3Z"></path> <path class="cls-2" d="M659.071,34.742a27.855,27.855,0,0,0-18.623,34.695A27.825,27.825,0,0,0,659.071,34.742Z"></path> </g>
    </svg>
