<svg id="country" xmlns="http://www.w3.org/2000/svg" viewBox="0 0 32 32"><defs><style>.cls-1{fill:#fff;}</style></defs><title>icons</title><path class="cls-1" d="M16,.5A15.5,15.5,0,1,0,31.5,16,15.6,15.6,0,0,0,16,.5ZM1.9,16.7H7.7a27.1,27.1,0,0,0,.8,5.9h-5A14.8,14.8,0,0,1,1.9,16.7Zm14.8-9V1.9c2,.4,3.7,2.6,4.9,5.8ZM22,9.1a23.8,23.8,0,0,1,.9,6.2H16.7V9.1ZM15.3,1.9V7.7H10.4C11.6,4.5,13.3,2.3,15.3,1.9Zm0,7.2v6.2H9.1A23.8,23.8,0,0,1,10,9.1ZM7.7,15.3H1.9A13.2,13.2,0,0,1,3.7,9.1H8.6A29.9,29.9,0,0,0,7.7,15.3Zm1.4,1.4h6.2v5.9H9.9A22.1,22.1,0,0,1,9.1,16.7ZM15.3,24v6.1c-2-.5-3.8-2.8-5-6.1Zm1.4,6.1V24h5C20.5,27.3,18.7,29.6,16.7,30.1Zm0-7.5V16.7h6.2a22.1,22.1,0,0,1-.8,5.9Zm7.6-5.9h5.8a14.8,14.8,0,0,1-1.6,5.9h-5A27.1,27.1,0,0,0,24.3,16.7Zm0-1.4a29.9,29.9,0,0,0-.9-6.2h4.9a13.2,13.2,0,0,1,1.8,6.2Zm3.1-7.6H23a12.9,12.9,0,0,0-2.9-5.2A13.8,13.8,0,0,1,27.4,7.7ZM11.9,2.5A12.9,12.9,0,0,0,9,7.7H4.6A13.8,13.8,0,0,1,11.9,2.5ZM4.4,24H8.9a13.1,13.1,0,0,0,3,5.5A13.5,13.5,0,0,1,4.4,24Zm15.7,5.5a13.1,13.1,0,0,0,3-5.5h4.5A13.5,13.5,0,0,1,20.1,29.5Z"/></svg>