<svg xmlns="http://www.w3.org/2000/svg" viewBox="0 0 32 32"><defs><style>.cls-1{fill:#fff;}</style></defs><title>icons</title><g id="policies"><rect class="cls-1" x="16.8" y="4.5" width="14.6" height="1.34"/><path class="cls-1" d="M9,9.9A4.7,4.7,0,1,0,4.4,4.5H.7V5.9H4.4A4.7,4.7,0,0,0,9,9.9ZM9,1.8A3.4,3.4,0,1,1,9,8.5,3.4,3.4,0,0,1,9,1.8Z"/><rect class="cls-1" x="16.8" y="26.1" width="14.6" height="1.34"/><path class="cls-1" d="M9,22.1a4.7,4.7,0,0,0-4.6,4H.7v1.4H4.4A4.7,4.7,0,1,0,9,22.1Zm0,8.1a3.4,3.4,0,1,1,3.4-3.4A3.4,3.4,0,0,1,9,30.2Z"/><rect class="cls-1" x="26.8" y="15.3" width="4.5" height="1.34"/><polygon class="cls-1" points="0.7 15.3 0.7 16.7 15.2 16.7 15.2 16 15.2 15.3 0.7 15.3"/><path class="cls-1" d="M24.6,16a4.7,4.7,0,1,0-4.7,4.7A4.7,4.7,0,0,0,24.6,16Zm-8,0a3.4,3.4,0,1,1,3.3,3.4A3.4,3.4,0,0,1,16.6,16Z"/></g></svg>