<svg xmlns="http://www.w3.org/2000/svg" viewBox="0 0 32 32"><defs><style>.cls-1{fill:#fff;}</style></defs><title>icons</title><g id="settings"><path class="cls-1" d="M16,11.2A4.8,4.8,0,1,0,20.8,16,4.9,4.9,0,0,0,16,11.2Zm0,8.2A3.4,3.4,0,1,1,19.4,16,3.4,3.4,0,0,1,16,19.4Z"/><path class="cls-1" d="M31.5,18.5v-5l-4.1-.3a12,12,0,0,0-1.3-3.3l2.6-3.1L25.2,3.3,22.1,5.9a12,12,0,0,0-3.3-1.3L18.5.5h-5l-.3,4.1A12,12,0,0,0,9.9,5.9L6.8,3.3,3.3,6.8,5.9,9.9a12,12,0,0,0-1.3,3.3l-4.1.3v5l4.1.3a12,12,0,0,0,1.3,3.3L3.3,25.2l3.5,3.5,3.1-2.6a12,12,0,0,0,3.3,1.3l.3,4.1h5l.3-4.1a12,12,0,0,0,3.3-1.3l3.1,2.6,3.5-3.5-2.6-3.1a12,12,0,0,0,1.3-3.3Zm-5.3-.4a11.4,11.4,0,0,1-1.5,3.6l-.3.5,2.5,2.9-1.8,1.8-2.9-2.5-.5.3a11.4,11.4,0,0,1-3.6,1.5h-.5l-.3,3.9H14.7l-.3-3.9h-.5a11.4,11.4,0,0,1-3.6-1.5l-.5-.3L6.9,26.9,5.1,25.1l2.5-2.9-.3-.5a11.4,11.4,0,0,1-1.5-3.6v-.5l-3.9-.3V14.7l3.9-.3v-.5a11.4,11.4,0,0,1,1.5-3.6l.3-.5L5.1,6.9,6.9,5.1,9.8,7.6l.5-.3a11.4,11.4,0,0,1,3.6-1.5h.5l.3-3.9h2.6l.3,3.9h.5a11.4,11.4,0,0,1,3.6,1.5l.5.3,2.9-2.5,1.8,1.8L24.4,9.8l.3.5a11.4,11.4,0,0,1,1.5,3.6v.5l3.9.3v2.6l-3.9.3Z"/></g></svg>