<svg xmlns="http://www.w3.org/2000/svg" viewBox="0 0 32 32"><defs><style>.cls-1{fill:#fff;}</style></defs><title>icons</title><g id="news"><path class="cls-1" d="M6,.5V17H.6V28.1a3.4,3.4,0,0,0,3.3,3.4H28.1a3.4,3.4,0,0,0,3.3-3.4V.5ZM6,26.2v1.9a2.1,2.1,0,0,1-2.1,2.1,2,2,0,0,1-2-2.1V18.4H6Zm24.1,1.9a2,2,0,0,1-2,2.1H6.6a3.1,3.1,0,0,0,.7-2.1V1.8H30.1Z"/><path class="cls-1" d="M18.1,7.2H11.2v6.9h6.9Zm-1.4,5.5H12.5V8.5h4.2Z"/><rect class="cls-1" x="21.2" y="7.2" width="4.7" height="1.34"/><rect class="cls-1" x="21.2" y="12.7" width="4.7" height="1.34"/><rect class="cls-1" x="11.4" y="18" width="14.6" height="1.34"/><rect class="cls-1" x="11.4" y="23.3" width="14.6" height="1.34"/></g></svg>