<svg xmlns="http://www.w3.org/2000/svg" viewBox="0 0 32 32"><defs><style>.cls-1{fill:#fff;}</style></defs><title>icons</title><g id="dashboard"><path class="cls-1" d="M16,3.7A15.6,15.6,0,0,0,.5,19.2a15.8,15.8,0,0,0,2,7.7L3.2,28c.1.1.2.2.2.3H28.6a10,10,0,0,0,.8-1.4A15.4,15.4,0,0,0,16,3.7ZM27.8,26.9H4.1A13.7,13.7,0,0,1,1.9,20H4.7V18.7H1.9A13.7,13.7,0,0,1,5.5,9.8l2,2,1-.9L6.4,8.8a14.3,14.3,0,0,1,8.9-3.7V8h1.4V5.1a14.3,14.3,0,0,1,8.9,3.7l-2.1,2.1,1,.9,2-2a13.7,13.7,0,0,1,3.6,8.9H27.3V20h2.8A12.7,12.7,0,0,1,27.8,26.9Z"/><path class="cls-1" d="M16,15.8h-.4l-2.2-6-1.3.5,2.2,5.9a3.4,3.4,0,0,0-1.8,3,3.5,3.5,0,0,0,7,0A3.5,3.5,0,0,0,16,15.8Zm0,5.7a2.1,2.1,0,0,1-2.1-2.2,2.1,2.1,0,1,1,4.2,0A2.1,2.1,0,0,1,16,21.5Z"/></g></svg>